HIERARCHY
ROOT hip
{
	OFFSET 0.000000 0.000000 0.000000 
	CHANNELS 6 Xposition Yposition Zposition Xrotation Zrotation Yrotation
	JOINT abdomen
	{
		OFFSET 0.000000 3.402643 0.000000 
		CHANNELS 3 Xrotation Zrotation Yrotation
		JOINT chest
		{
			OFFSET 0.000000 8.438565 -0.680529 
			CHANNELS 3 Xrotation Zrotation Yrotation
			JOINT neck
			{
				OFFSET 0.000000 10.207942 -0.272212 
				CHANNELS 3 Xrotation Zrotation Yrotation
				JOINT head
				{
					OFFSET 0.000000 3.130431 0.000000 
					CHANNELS 3 Xrotation Zrotation Yrotation
					End Site
					{
						OFFSET 0.000000 3.130435 0.000000 
					}
				}
			}
			JOINT lCollar
			{
				OFFSET 3.470700 6.669187 -0.816635 
				CHANNELS 3 Yrotation Zrotation Xrotation
				JOINT lShldr
				{
					OFFSET 3.198488 0.000000 0.000000 
					CHANNELS 3 Zrotation Yrotation Xrotation
					JOINT lForeArm
					{
						OFFSET 10.139888 0.000000 0.000000 
						CHANNELS 3 Yrotation Zrotation Xrotation
						JOINT lHand
						{
							OFFSET 8.370511 0.000000 0.000000 
							CHANNELS 3 Zrotation Yrotation Xrotation
							End Site
							{
								OFFSET 4.083176 0.000000 0.000000 
							}
						}
					}
				}
			}
			JOINT rCollar
			{
				OFFSET -3.470700 6.669187 -0.816635 
				CHANNELS 3 Yrotation Zrotation Xrotation
				JOINT rShldr
				{
					OFFSET -3.198488 0.000000 0.000000 
					CHANNELS 3 Zrotation Yrotation Xrotation
					JOINT rForeArm
					{
						OFFSET -10.139888 0.000000 0.000000 
						CHANNELS 3 Yrotation Zrotation Xrotation
						JOINT rHand
						{
							OFFSET -8.370511 0.000000 0.000000 
							CHANNELS 3 Zrotation Yrotation Xrotation
							End Site
							{
								OFFSET -4.083176 0.000000 0.000000 
							}
						}
					}
				}
			}
		}
	}
	JOINT lThigh
	{
		OFFSET 5.308129 -1.633274 1.361059 
		CHANNELS 3 Xrotation Zrotation Yrotation
		JOINT lShin
		{
			OFFSET -2.041588 -20.007561 0.000000 
			CHANNELS 3 Xrotation Zrotation Yrotation
			JOINT lFoot
			{
				OFFSET 0.000000 -19.190928 -1.224953 
				CHANNELS 3 Xrotation Yrotation Zrotation
				End Site
				{
					OFFSET 0.000000 -2.449906 4.627600 
				}
			}
		}
	}
	JOINT rThigh
	{
		OFFSET -5.308129 -1.633274 1.361059 
		CHANNELS 3 Xrotation Zrotation Yrotation
		JOINT rShin
		{
			OFFSET 2.041588 -20.007561 0.000000 
			CHANNELS 3 Xrotation Zrotation Yrotation
			JOINT rFoot
			{
				OFFSET 0.000000 -19.190928 -1.224953 
				CHANNELS 3 Xrotation Yrotation Zrotation
				End Site
				{
					OFFSET 0.000000 -2.449906 4.627600 
				}
			}
		}
	}
}
MOTION
Frames: 13
Frame Time: 0.033333
41.952587 56.571392 -9.397772 -167.213821 1.247636 68.994835 10.838267 4.803664 13.543244 -20.427176 0.263024 3.352651 -16.850872 -16.302713 9.259461 -13.610699 5.895637 9.760694 -4.921947 -9.476123 -0.539306 61.498230 -62.080349 -63.167324 -67.904228 9.347389 16.064287 8.524705 12.647240 -56.224010 3.322233 12.489151 -0.342371 -28.370832 75.590111 -26.554087 80.201942 -6.393566 22.613533 -8.534408 -12.637552 72.826035 -25.834642 7.702419 12.143591 65.238731 -2.134004 -8.569904 4.708828 8.210895 -3.499404 16.015116 -18.835794 -1.065058 47.701836 3.967443 6.964101 9.955085 3.390948 2.091249 
42.186440 56.524426 -9.585317 -167.347412 0.661856 72.970367 9.229954 0.482802 18.701954 -21.004763 -7.973305 5.021426 -13.939962 -1.526482 3.079149 -14.051606 -0.938161 5.880449 -4.921947 -9.476123 -0.539306 71.562935 -68.491035 -66.665695 -68.960358 9.261653 16.573528 8.524705 12.647240 -54.739639 3.322233 12.489151 -0.342371 -24.974329 69.860497 -36.451942 76.615219 -7.802506 20.509148 -8.534408 -12.637552 69.349464 -25.830454 8.535673 12.688426 65.228943 -2.136031 -8.570297 6.174178 0.815616 -2.882361 15.697318 -18.370920 -1.378203 47.780235 3.967378 6.970696 4.661332 1.314966 2.814066 
42.393166 56.490685 -9.801970 -167.149475 0.421133 77.037407 9.813668 -0.247889 12.603768 -20.325420 -6.462554 3.399612 -15.417457 5.705865 4.122181 -14.201826 -5.000854 11.301290 -4.921947 -9.476123 -0.539306 70.888313 -63.620098 -62.502472 -69.603531 9.198342 16.881611 8.524705 12.647240 -53.899792 3.322233 12.489151 -0.342371 -28.910658 76.100441 -40.503445 73.916832 -8.517143 19.075310 -8.534408 -12.637552 69.720566 -25.482016 8.970492 13.360433 64.819443 -2.183498 -8.529244 3.598025 -8.019748 -2.822330 15.631201 -18.334568 -1.904228 47.849323 3.964802 6.965779 2.908976 1.033112 2.958430 
42.668369 56.294872 -10.057323 -166.823349 0.238750 81.186104 9.984580 -0.242891 13.269395 -20.678061 -6.339658 3.592627 -14.990355 1.740228 4.064641 -14.263962 -2.306273 9.290720 -4.921947 -9.476123 -0.539306 69.476814 -64.960075 -62.199398 -69.772751 9.182094 16.968609 8.524705 12.647240 -52.503307 3.322233 12.489151 -0.342371 -34.710094 74.640297 -43.309822 71.253563 -8.998083 17.709625 -8.534408 -12.637552 70.911964 -24.866474 8.980097 13.668591 64.263435 -2.250789 -8.478712 1.826233 -10.023677 -3.211917 15.600372 -18.333366 -2.291986 47.868584 3.964791 6.977091 1.059947 0.973896 3.075268 
42.913139 56.207878 -10.286214 -166.605576 -0.071227 85.286575 10.168838 -0.867507 12.323569 -20.571724 -6.810730 3.377741 -15.620768 3.267547 3.731019 -13.922293 -2.852618 9.181276 -4.921947 -9.476123 -0.539306 69.635628 -64.815674 -61.292751 -70.308838 9.120457 17.236031 8.524705 12.647240 -51.321667 3.322233 12.489151 -0.342371 -38.785397 74.759674 -47.595520 68.466927 -9.310294 16.343086 -8.534408 -12.637552 71.195175 -24.567200 9.363062 14.179597 63.824326 -2.309278 -8.441022 0.144608 -12.227974 -3.686507 15.595035 -18.388283 -2.732112 47.897980 3.981668 6.957659 -1.156549 0.861236 3.156674 
43.173782 56.104347 -10.522051 -166.366745 -0.414240 89.380516 10.346316 -1.156400 11.502232 -20.582092 -6.903319 3.176154 -15.992273 3.172013 3.611074 -13.524295 -2.673742 8.821087 -4.921947 -9.476123 -0.539306 68.968460 -64.837273 -60.263901 -70.799767 9.053326 17.469679 8.524705 12.647240 -50.188858 3.322233 12.489151 -0.342371 -42.562618 74.619423 -50.541317 66.283188 -9.434962 15.303574 -8.534408 -12.637552 72.035011 -24.291794 9.693420 14.689042 63.335629 -2.349342 -8.417052 -0.833936 -13.511780 -4.044790 15.599782 -18.499458 -3.107974 47.908470 3.964531 6.960979 -2.730512 1.001812 3.221252 
43.454605 55.981968 -10.761857 -166.165802 -0.818715 93.447311 10.397192 -1.378919 11.093785 -20.612148 -7.060464 3.086158 -16.146996 2.633795 3.394537 -13.069972 -2.373109 8.082762 -4.921947 -9.476123 -0.539306 68.201340 -65.311142 -59.424953 -71.283524 8.991105 17.721813 8.524705 12.647240 -49.065807 3.322233 12.489151 -0.342371 -45.192238 74.149307 -52.433670 64.730141 -9.464149 14.568074 -8.534408 -12.637552 72.904152 -24.097033 10.055074 15.136254 62.906315 -2.416546 -8.374743 -1.143812 -14.177487 -4.182419 15.579006 -18.606087 -3.319069 47.947567 3.971807 6.957695 -3.727554 1.156612 3.273593 
43.755932 55.840069 -11.005302 -166.038010 -1.258550 97.476845 10.372287 -1.568369 10.664937 -20.612778 -7.228997 2.992895 -16.235300 2.230099 3.173614 -12.554850 -2.207826 7.395227 -4.921947 -9.476123 -0.539306 67.417030 -65.783836 -58.565800 -71.813690 8.906131 17.980444 8.524705 12.647240 -47.952530 3.322233 12.489151 -0.342371 -46.668903 73.781219 -53.467831 63.769760 -9.455460 14.124330 -8.534408 -12.637552 73.607285 -23.954556 10.478163 15.565917 62.437668 -2.474976 -8.333354 -1.022593 -14.495047 -4.185014 15.526155 -18.701019 -3.332077 48.035671 3.962084 6.980409 -4.121636 1.324531 3.289228 
44.075787 55.678318 -11.251062 -166.006805 -1.723670 101.461815 10.334523 -1.681605 10.198590 -20.564238 -7.390735 2.873569 -16.323610 1.855440 2.985962 -12.029948 -2.021361 6.805722 -4.921947 -9.476123 -0.539306 66.627831 -66.176033 -57.722660 -72.386414 8.812075 18.273874 8.524705 12.647240 -46.751354 3.322233 12.489151 -0.342371 -47.390972 73.486649 -53.972191 63.206078 -9.447469 13.864895 -8.534408 -12.637552 73.890480 -23.864817 11.003758 15.979103 61.958866 -2.515133 -8.299512 -0.882304 -14.812425 -4.186504 15.415087 -18.715298 -3.165105 48.163734 3.944981 6.993653 -3.990838 1.454463 3.298286 
44.409527 55.499043 -11.497154 -166.072464 -2.175949 105.405251 10.290415 -1.731476 9.712898 -20.466431 -7.544857 2.747321 -16.362972 1.467353 2.834465 -11.631853 -1.815190 6.291338 -4.921947 -9.476123 -0.539306 65.797050 -66.594704 -56.910183 -73.016670 8.693716 18.593672 8.524705 12.647240 -45.491585 3.322233 12.489151 -0.342371 -47.606449 73.230247 -54.100498 62.896923 -9.438602 13.718682 -8.534408 -12.637552 73.656113 -23.824354 11.607782 16.380346 61.460617 -2.563879 -8.259099 -0.754326 -15.105968 -4.189568 15.281835 -18.709841 -2.819383 48.369339 3.942538 7.020102 -3.431457 1.637848 3.297479 
44.751217 55.311169 -11.743576 -166.212631 -2.610288 109.309875 10.290887 -1.729231 9.189720 -20.348810 -7.680149 2.607756 -16.334164 1.062633 2.709187 -11.459080 -1.618138 5.847352 -4.921947 -9.476123 -0.539306 64.917458 -66.978668 -56.115952 -73.717484 8.551731 18.952427 8.524705 12.647240 -43.987686 3.322233 12.489151 -0.342371 -47.999207 72.955338 -54.265594 62.459927 -9.424342 13.522348 -8.534408 -12.637552 73.060410 -23.811611 12.298074 16.806957 60.972080 -2.641875 -8.216202 -0.648586 -15.360912 -4.179484 15.076702 -18.659681 -2.378552 48.685085 3.886514 7.051789 -2.799948 1.903000 3.304969 
45.095215 55.122627 -11.989667 -166.409637 -2.992899 113.163857 10.361550 -1.701134 8.655842 -20.221205 -7.795986 2.456182 -16.227922 0.735022 2.581513 -11.476664 -1.588384 5.424853 -4.921947 -9.476123 -0.539306 63.988838 -67.439018 -55.403831 -74.464775 8.383908 19.346994 8.524705 12.647240 -42.327526 3.322233 12.489151 -0.342371 -48.551189 72.640862 -54.409306 61.937584 -9.402815 13.291388 -8.534408 -12.637552 72.240089 -23.813410 13.071121 17.251953 60.492977 -2.699331 -8.181267 -0.588665 -15.566537 -4.188771 14.828245 -18.605209 -1.884331 49.078129 3.847333 7.096987 -2.110811 2.327853 3.266861 
45.439873 54.937073 -12.234435 -166.605423 -3.341682 116.959999 10.508688 -1.699218 8.133197 -20.132910 -7.909617 2.309489 -16.102829 0.486089 2.409679 -11.547665 -1.745161 4.981844 -4.921947 -9.476123 -0.539306 63.051319 -68.000481 -54.794106 -75.228752 8.196727 19.752195 8.524705 12.647240 -40.569714 3.322233 12.489151 -0.342371 -49.158356 72.300339 -54.463726 61.383537 -9.374564 13.038310 -8.534408 -12.637552 71.439308 -23.777298 13.864957 17.764866 60.004093 -2.739619 -8.145268 -0.584365 -15.659209 -4.191607 14.580017 -18.612738 -1.389740 49.539955 3.808245 7.138113 -1.427740 2.942560 3.277576 
